<?xml version="1.0" encoding="utf-8"?><svg xmlns="http://www.w3.org/2000/svg" xmlns:xlink="http://www.w3.org/1999/xlink" width="1440" height="736" preserveAspectRatio="xMidYMid" viewBox="0 0 1440 736" style="z-index:1;margin-right:-2px;display:block;background-repeat-y:initial;background-repeat-x:initial;animation-play-state:paused" ><g transform="translate(720,368) scale(1,1) translate(-720,-368)" style="transform:matrix(1, 0, 0, 1, 0, 0);animation-play-state:paused" ><linearGradient id="lg-0.64891604262531" x1="0" x2="1" y1="0" y2="0" style="animation-play-state:paused" ><stop stop-color="#a3f7ff" offset="0" style="animation-play-state:paused" ></stop>

  
<stop stop-color="#f4b2ff" offset="1" style="animation-play-state:paused" ></stop></linearGradient>
<path d="M 0 0 M 0 649.337 Q 144 606.208 288 600.565 T 576 579.297 T 864 567.623 T 1152 573.35 T 1440 492.353 L 1440 210.114 Q 1296 138.931 1152 135.906 T 864 162.9 T 576 94.3624 T 288 131.386 T 0 107.647 Z" fill="url(#lg-0.64891604262531)" opacity="0.4" style="opacity:0.4;animation-play-state:paused" ></path>
<path d="M 0 0 M 0 629.763 Q 144 610.458 288 606.019 T 576 619.412 T 864 616.489 T 1152 530.202 T 1440 561.624 L 1440 171.586 Q 1296 183.252 1152 179.616 T 864 141.533 T 576 100.887 T 288 68.5941 T 0 74.0715 Z" fill="url(#lg-0.64891604262531)" opacity="0.4" style="opacity:0.4;animation-play-state:paused" ></path>
<path d="M 0 0 M 0 684.88 Q 144 632.085 288 628.109 T 576 614.243 T 864 600.702 T 1152 535.462 T 1440 530.996 L 1440 221.619 Q 1296 171.176 1152 163.148 T 864 125.204 T 576 128.122 T 288 109.03 T 0 69.5798 Z" fill="url(#lg-0.64891604262531)" opacity="0.4" style="opacity:0.4;animation-play-state:paused" ></path>
<path d="M 0 0 M 0 637.948 Q 144 648.906 288 643.344 T 576 641.167 T 864 600.956 T 1152 592.593 T 1440 513.756 L 1440 179.755 Q 1296 190.607 1152 186.849 T 864 169.461 T 576 104.176 T 288 93.9339 T 0 50.8961 Z" fill="url(#lg-0.64891604262531)" opacity="0.4" style="opacity:0.4;animation-play-state:paused" ></path></g></svg>