<?xml version="1.0" encoding="utf-8"?><svg xmlns="http://www.w3.org/2000/svg" xmlns:xlink="http://www.w3.org/1999/xlink" width="1440" height="736" preserveAspectRatio="xMidYMid" viewBox="0 0 1440 736" style="z-index:1;margin-right:-2px;display:block;background-repeat-y:initial;background-repeat-x:initial;background-color:rgb(255, 255, 255);animation-play-state:paused" ><g transform="translate(720,368) scale(1,1) translate(-720,-368)" style="transform:matrix(1, 0, 0, 1, 0, 0);animation-play-state:paused" ><linearGradient id="lg-0.2363625666237621" x1="0" x2="1" y1="0" y2="0" style="animation-play-state:paused" ><stop stop-color="#ff00ff" offset="0" style="animation-play-state:paused" ></stop>

  
<stop stop-color="#00ffff" offset="1" style="animation-play-state:paused" ></stop></linearGradient>
<path d="M 0 0 M 0 678.808 Q 144 608.823 288 605.67 T 576 604.037 T 864 605.439 T 1152 594.633 T 1440 524.612 L 1440 195.436 Q 1296 211.469 1152 206.535 T 864 166.357 T 576 124.228 T 288 56.321 T 0 111.42 Z" fill="url(#lg-0.2363625666237621)" opacity="0.4" style="opacity:0.4;animation-play-state:paused" ></path>
<path d="M 0 0 M 0 657.44 Q 144 613.53 288 606.266 T 576 603.364 T 864 557.604 T 1152 547.782 T 1440 499.918 L 1440 224.28 Q 1296 180.094 1152 176.681 T 864 157.262 T 576 140.387 T 288 68.3582 T 0 61.7783 Z" fill="url(#lg-0.2363625666237621)" opacity="0.4" style="opacity:0.4;animation-play-state:paused" ></path>
<path d="M 0 0 M 0 672.714 Q 144 639.846 288 633.431 T 576 607.807 T 864 621.863 T 1152 544.112 T 1440 502.252 L 1440 187.082 Q 1296 185.899 1152 181.847 T 864 168.59 T 576 116.083 T 288 100.015 T 0 72.7889 Z" fill="url(#lg-0.2363625666237621)" opacity="0.4" style="opacity:0.4;animation-play-state:paused" ></path>
<path d="M 0 0 M 0 650.472 Q 144 660.226 288 656.207 T 576 625.319 T 864 555.799 T 1152 536.306 T 1440 523.397 L 1440 204.224 Q 1296 174.932 1152 172.535 T 864 149.271 T 576 107.132 T 288 80.0479 T 0 94.611 Z" fill="url(#lg-0.2363625666237621)" opacity="0.4" style="opacity:0.4;animation-play-state:paused" ></path></g></svg>